:version 1.10
:name ASF
:units
  mass 1
  length 1
  angle deg
:documentation
  ASF file generated by Kaydara
:root
  axis xyz
  order  tx ty tz rx ry rz
  position 0 0 0
  orientation 0 0 0
:bonedata
  begin
    id 1
    name RightUpLegDummy
    direction -0.718183 -0.695806 0.00816078
    length 4.904
    axis 0 0 0 xyz
  end
  begin
    id 2
    name RightUpLeg
    direction 3.53989e-006 -0.995788 0.0916897
    length 17.4976
    axis -3.49089 -0.000906621 0.000287158 xyz
    dof rx ry rz
  end
  begin
    id 3
    name RightLeg
    direction 0.00371093 -0.995096 -0.0988418
    length 16.5821
    axis 3.68512 0.0193738 -0.131023 xyz
    dof rx ry rz
  end
  begin
    id 4
    name RightFoot
    direction 0.000791514 -0.46099 0.887405
    length 3.77069
    axis 4.84075e-005 -0.120479 -0.188788 xyz
    dof rx ry rz
  end
  begin
    id 5
    name RightToes
    direction 0.00124746 -0.014064 0.9999
    length 3.85082
    axis 0.00048216 0.542163 -0.142577 xyz
    dof rx ry rz
  end
  begin
    id 6
    name SpineDummy
    direction 8.3039e-015 1 4.57515e-016
    length 4.6813
    axis 0 0 0 xyz
  end
  begin
    id 7
    name Spine
    direction -4.63632e-008 0.999988 0.00495137
    length 10.1015
    axis -0.00138897 0.000121419 3.25764e-006 xyz
    dof rx ry rz
  end
  begin
    id 8
    name Spine1
    direction 0 0 0
    length 0
    axis -0.00138896 0.000121452 2.39764e-006 xyz
    dof rx ry rz
  end
  begin
    id 9
    name HEadDummy
    direction -3.91456e-008 0.999999 0.00127422
    length 3.43865
    axis -0.00138896 0.000121452 2.39764e-006 xyz
  end
  begin
    id 10
    name HEad
    direction -0.0222688 0.980941 0.193023
    length 5.12695
    axis -0.00138895 0.000121452 2.39764e-006 xyz
    dof rx ry rz
  end
  begin
    id 11
    name LeftShoulder1Dummy
    direction 0.998891 -0.0402508 -0.0244456
    length 3.5433
    axis -0.00138896 0.000121452 2.39764e-006 xyz
  end
  begin
    id 12
    name LeftShoulder1
    direction 0.99951 -0.000327743 0.0313091
    length 4.05031
    axis -0.00138896 0.000121452 2.39764e-006 xyz
    dof rx ry rz
  end
  begin
    id 13
    name LeftArm
    direction 0.998561 -0.00100054 -0.0536182
    length 10.3537
    axis -23.1894 0.134784 0.96751 xyz
    dof rx ry rz
  end
  begin
    id 14
    name LeftForeArm
    direction 0.998903 0.00866434 0.046012
    length 8.70632
    axis -9.91835 -0.06569 -0.177792 xyz
    dof rx ry rz
  end
  begin
    id 15
    name LeftHand
    direction 0.992938 -0.0411636 0.11126
    length 5.32135
    axis -0.00960227 -0.00340091 0.185174 xyz
    dof rx ry rz
  end
  begin
    id 16
    name RightShoulderDummy
    direction -0.998891 -0.0402509 -0.0244414
    length 3.5433
    axis -0.00138896 0.000121452 2.39764e-006 xyz
  end
  begin
    id 17
    name RightShoulder
    direction -0.99951 -0.000327827 0.0313133
    length 4.05031
    axis 0.215806 0.000203644 -0.00680151 xyz
    dof rx ry rz
  end
  begin
    id 18
    name RightArm
    direction -0.998573 -0.000999583 -0.053403
    length 10.3947
    axis -23.2009 -0.134239 -0.9641 xyz
    dof rx ry rz
  end
  begin
    id 19
    name RightForeArm
    direction -0.998898 0.00868026 0.0461306
    length 8.68355
    axis -9.92322 0.0658061 0.178869 xyz
    dof rx ry rz
  end
  begin
    id 20
    name RightHand
    direction -0.992843 -0.0414603 0.112003
    length 5.28593
    axis -0.00960634 0.00330671 -0.185226 xyz
    dof rx ry rz
  end
  begin
    id 21
    name LeftUpLegDummy
    direction 0.718183 -0.695806 0.00816078
    length 4.904
    axis 0 0 0 xyz
  end
  begin
    id 22
    name LeftUpLeg
    direction -6.8115e-006 -0.995793 0.0916336
    length 17.4976
    axis -3.48766 0.00143441 -0.000523914 xyz
    dof rx ry rz
  end
  begin
    id 23
    name LeftLeg
    direction -0.00601357 -0.995091 -0.0987824
    length 16.5821
    axis 3.68177 -0.00654038 -0.00028478 xyz
    dof rx ry rz
  end
  begin
    id 24
    name LeftFoot
    direction -0.00417578 -0.460984 0.887399
    length 3.77069
    axis 1.87232e-006 4.66002e-005 -8.1837e-006 xyz
    dof rx ry rz
  end
  begin
    id 25
    name LeftToes
    direction 0.00818058 -0.00485161 0.999955
    length 3.85048
    axis 1.06246e-005 4.65855e-005 -8.18502e-006 xyz
    dof rx ry rz
  end
:hierarchy
  begin
    root RightUpLegDummy SpineDummy LeftUpLegDummy
    RightUpLegDummy RightUpLeg
    RightUpLeg RightLeg
    RightLeg RightFoot
    RightFoot RightToes
    SpineDummy Spine
    Spine Spine1
    Spine1 HEadDummy LeftShoulder1Dummy RightShoulderDummy
    HEadDummy HEad
    LeftShoulder1Dummy LeftShoulder1
    LeftShoulder1 LeftArm
    LeftArm LeftForeArm
    LeftForeArm LeftHand
    RightShoulderDummy RightShoulder
    RightShoulder RightArm
    RightArm RightForeArm
    RightForeArm RightHand
    LeftUpLegDummy LeftUpLeg
    LeftUpLeg LeftLeg
    LeftLeg LeftFoot
    LeftFoot LeftToes
  end

:SAMPLES-PER-SECOND 30
:FRAME-RANGE 1-2643
:FULLY-SPECIFIED
:DEGREES
1
root  -31.0003 38.5009 6.62997 3.38442 46.1671 2.06148
RightUpLeg  -14.4495 -15.7284 -3.04968
RightLeg  62.7939 4.11255 8.12624
RightFoot  -2.41045 -1.35011 16.961
RightToes  5.38607e-012 1.2921e-014 -6.02303e-014
Spine  -5.4232 1.22266 1.08702
Spine1  12.0052 2.86425 -7.80047
HEad  5.92457 60.3016 -10.4435
LeftShoulder1  0.902347 0.364217 -24.7253
LeftArm  -4.03925 -2.01768 -47.142
LeftForeArm  34.7153 7.72343 -12.2201
LeftHand  -0.0276545 5.33534 2.39682
RightShoulder  2.39571 4.11277 26.3268
RightArm  -34.6955 7.39149 49.1486
RightForeArm  69.286 -4.22435 -2.98402
RightHand  0.0571594 -5.77362 -20.3641
LeftUpLeg  -21.5823 -1.87877 -8.06895
LeftLeg  21.151 18.8617 8.1527
LeftFoot  -2.83505 -0.361273 5.08494
LeftToes  -4.79707e-012 -5.93756e-011 -7.55542e-012
2
root  -30.7601 38.5593 7.20566 3.19038 47.8545 1.95524
RightUpLeg  -16.1278 -15.0644 -3.62565
RightLeg  63.3304 2.42363 4.70181
RightFoot  -4.74413 -0.833559 13.8366
RightToes  5.38607e-012 1.2921e-014 -6.02303e-014
Spine  -5.13413 0.85878 0.401376
Spine1  11.6326 2.40054 -7.5746
HEad  8.44795 57.9413 -7.91983
LeftShoulder1  0.950509 0.206534 -24.7189
LeftArm  -3.86771 -3.10743 -47.7243
LeftForeArm  34.5947 6.67233 -12.128
LeftHand  -0.0295597 5.22191 2.75357
RightShoulder  2.33547 3.90043 26.4432
RightArm  -35.6156 5.95 49.2301
RightForeArm  69.535 -4.12971 -3.47175
RightHand  0.0749504 -5.88745 -19.9775
LeftUpLeg  -20.7505 -2.34726 -7.80042
LeftLeg  21.7262 17.6794 8.02317
LeftFoot  -3.87514 -0.271974 4.5247
LeftToes  -4.79707e-012 -5.93756e-011 -7.55542e-012
3
root  -30.5274 38.673 7.76398 2.91667 49.681 1.51828
RightUpLeg  -17.275 -14.291 -4.02179
RightLeg  61.0583 0.48039 0.436687
RightFoot  -7.0282 -0.434236 10.2322
RightToes  5.38607e-012 1.2921e-014 -6.02303e-014
Spine  -4.92113 0.49524 0.00201731
Spine1  11.0828 1.94347 -7.21532
HEad  11.3341 55.5453 -5.20572
LeftShoulder1  1.01487 -0.00851645 -24.6695
LeftArm  -3.48532 -4.21052 -48.3994
LeftForeArm  34.4655 5.07599 -12.1998
LeftHand  -0.0357404 4.94001 3.07423
RightShoulder  2.24899 3.5728 26.735
RightArm  -35.6328 4.56454 49.0285
RightForeArm  69.1058 -4.17085 -3.33069
RightHand  0.0685961 -5.86136 -19.6174
LeftUpLeg  -19.8378 -2.71838 -7.27646
LeftLeg  21.6082 16.2868 7.5457
LeftFoot  -4.53921 -0.21753 4.11955
LeftToes  -4.79707e-012 -5.93756e-011 -7.55542e-012
4
root  -30.32 38.7678 8.29526 2.73854 51.6184 1.01138
RightUpLeg  -17.8055 -13.1828 -4.55538
RightLeg  56.3881 -1.76424 -3.28363
RightFoot  -9.71002 -0.186133 8.41662
RightToes  5.38607e-012 1.2921e-014 -6.02303e-014
Spine  -4.81181 0.100113 -0.438276
Spine1  10.6386 1.41913 -6.63629
HEad  13.1269 53.4566 -3.95606
LeftShoulder1  1.06109 -0.173902 -24.5373
LeftArm  -3.17199 -5.47297 -49.4158
LeftForeArm  34.5894 3.79239 -12.2343
LeftHand  -0.0400666 4.80135 3.40448
RightShoulder  2.19177 3.3551 26.9483
RightArm  -35.7885 3.46231 48.8162
RightForeArm  68.9795 -4.1797 -3.3077
RightHand  0.0428068 -5.71017 -19.5215
LeftUpLeg  -19.2096 -2.91252 -6.69393
LeftLeg  21.5022 14.6497 6.94606
LeftFoot  -5.20478 -0.172945 3.81078
LeftToes  -4.79707e-012 -5.93756e-011 -7.55542e-012
5
root  -30.1167 38.8966 8.80188 2.50669 53.5523 0.422095
RightUpLeg  -17.665 -11.591 -5.25146
RightLeg  49.6104 -4.29995 -5.73889
RightFoot  -10.6292 -0.120608 7.76077
RightToes  5.38607e-012 1.2921e-014 -6.02303e-014
Spine  -4.81244 -0.250016 -0.59622
Spine1  10.4608 0.999149 -6.07902
HEad  13.1716 51.8085 -4.04682
LeftShoulder1  1.12172 -0.426993 -24.073
LeftArm  -2.88258 -6.83792 -50.7461
LeftForeArm  34.8911 2.76335 -12.2407
LeftHand  -0.0427913 4.70487 3.48061
RightShoulder  2.11789 3.06904 27.2717
RightArm  -36.3089 2.72085 48.6955
RightForeArm  69.5991 -4.11213 -3.55819
RightHand  0.00467982 -5.48307 -19.4356
LeftUpLeg  -18.4632 -3.31847 -6.04293
LeftLeg  20.9905 13.1974 6.33043
LeftFoot  -5.52531 -0.141017 3.43097
LeftToes  -4.79707e-012 -5.93756e-011 -7.55542e-012
6
root  -29.9302 39.0195 9.27803 2.33684 55.3922 -0.225378
RightUpLeg  -17.1033 -9.14892 -6.09782
RightLeg  41.4233 -6.8389 -6.69783
RightFoot  -10.3806 -0.134772 7.64133
RightToes  5.38607e-012 1.2921e-014 -6.02303e-014
Spine  -4.6657 -0.508491 -0.403073
Spine1  10.0913 0.6948 -5.58168
HEad  12.8344 50.4484 -4.3222
LeftShoulder1  1.18358 -0.68576 -23.6551
LeftArm  -2.31638 -8.275 -52.05
LeftForeArm  35.4988 2.06918 -12.351
LeftHand  -0.0415131 4.71807 3.76995
RightShoulder  2.08151 2.89017 27.6534
RightArm  -36.0545 1.99174 48.4168
RightForeArm  69.1705 -4.17924 -3.26835
RightHand  0.0292356 -5.62541 -19.716
LeftUpLeg  -17.8463 -3.7818 -5.36919
LeftLeg  20.3168 12.042 5.76788
LeftFoot  -5.73524 -0.13585 3.47987
LeftToes  -4.79707e-012 -5.93756e-011 -7.55542e-012
7
root  -29.7384 39.1102 9.74187 2.36431 57.1438 -0.685906
RightUpLeg  -16.0333 -6.15352 -7.42229
RightLeg  32.2807 -7.84461 -5.54295
RightFoot  -10.4585 -0.1323 7.92466
RightToes  5.38607e-012 1.2921e-014 -6.02303e-014
Spine  -4.93777 -0.644786 -0.0722001
Spine1  10.2127 0.549352 -5.25495
HEad  12.6616 49.1719 -4.54565
LeftShoulder1  1.27716 -1.04844 -23.3191
LeftArm  -1.29965 -9.7743 -53.1848
LeftForeArm  36.1721 1.58334 -12.6245
LeftHand  -0.0418673 4.72854 3.8593
RightShoulder  2.07999 2.85522 27.8244
RightArm  -35.757 1.33432 48.3625
RightForeArm  68.7943 -4.24648 -2.96524
RightHand  0.00823747 -5.49997 -19.8142
LeftUpLeg  -17.4835 -4.29039 -4.74548
LeftLeg  19.9759 10.9182 5.25115
LeftFoot  -6.05537 -0.119844 3.38597
LeftToes  -4.79707e-012 -5.93756e-011 -7.55542e-012
8
root  -29.5459 39.1535 10.1952 2.88604 58.7525 -0.566776
RightUpLeg  -15.0257 -2.87224 -9.29577
RightLeg  23.7337 -6.54693 -3.35412
RightFoot  -10.0268 -0.160114 7.99704
RightToes  5.38607e-012 1.2921e-014 -6.02303e-014
Spine  -5.12116 -0.713713 0.214489
Spine1  10.1621 0.529888 -5.22957
HEad  12.3932 48.4953 -4.67442
LeftShoulder1  1.29493 -1.15068 -23.0301
LeftArm  -0.157904 -11.1739 -54.2557
LeftForeArm  36.9497 1.39184 -12.9205
LeftHand  -0.0437128 4.69777 3.75712
RightShoulder  2.07348 2.82495 27.8863
RightArm  -35.6585 1.00438 48.5083
RightForeArm  68.9021 -4.26086 -2.85897
RightHand  0.0309176 -5.62893 -20.0626
LeftUpLeg  -17.3458 -4.88009 -4.4168
LeftLeg  19.9642 9.98845 4.84032
LeftFoot  -6.4115 -0.104712 3.32916
LeftToes  -4.79707e-012 -5.93756e-011 -7.55542e-012
